<?xml version="1.0" encoding="utf-8"?>
<!-- Generator: Adobe Illustrator 21.1.0, SVG Export Plug-In . SVG Version: 6.00 Build 0)  -->
<svg version="1.1" id="Layer_1" xmlns="http://www.w3.org/2000/svg" xmlns:xlink="http://www.w3.org/1999/xlink" x="0px" y="0px"
	 viewBox="0 0 100 99.4" style="enable-background:new 0 0 100 99.4;" xml:space="preserve">
<style type="text/css">
	.st0{fill:#EBEFB8;}
</style>
<title>Artboard 20</title>
<path class="st0" d="M51.6,28.4c1.6-2.1,2.3-4.7,2-7.3c-0.3-2.6-1.5-5-3.5-6.8c-2-1.9-4.6-3-7.3-3.2c-3.1,0.3-6,1.9-7.8,4.5
	c-1.8,2.5-2.5,5.6-1.9,8.6c0.3,1.8,1.1,3.6,2.2,5.1c1.2,1.5,2.7,2.7,4.5,3.5c0.5,0.2,1,0.4,1.4,0.7c0.4,0.2,0.8,0.4,1.1,0.7
	c0.6,0.4,1.1,1,1.2,1.7c0.1,0.7-0.4,1.2-1.3,1.5c-0.6,0.1-1.1,0.2-1.7,0.2c-0.7,0-1.4-0.1-2.1-0.3c-5.3-1.5-9.3-5.7-10.6-11
	c-1.3-5.4,0.2-11,4.1-14.9c1.2-1.2,2.6-2.2,4.1-3c3-1.7,6.4-2.4,9.8-1.9c6.9,1,12.3,6.5,13.2,13.4c0.1,0.8,0.1,1.6,0.1,2.5
	c0,0.8-0.1,1.6-0.3,2.4c-0.3,1.6-0.9,3.1-1.7,4.6c-1.3,2.3-3.2,4.1-5.6,5.2c-2.1,1-4.4,1.1-6.6,0.5c-1.2-0.4-1.8-1-1.3-1.8
	c0.3-0.5,0.8-0.8,1.4-1C47.7,31.9,50.1,30.5,51.6,28.4z M17.1,52.5c1.9,2.9,3.3,6,4.2,9.3c0.5,1.6,0.8,3.3,1,5
	c0.2,1.8,0.3,3.5,0.2,5.3l0.1,11.2v2.8v1.4v0.7c0,0.2,0,0.3,0.1,0.5c0.3,1.4,1.2,2.5,2.6,3c0.3,0.1,0.7,0.2,1,0.2c0.2,0,0.4,0,0.5,0
	H27h1.4l2.8-0.1c8.5-0.2,15.5-0.9,14.9-2.3s-6.6-2.2-15.3-2.3l-2.8,0h-0.3v-0.5v-1.5v-2.9l0.2-11.8c0.1-4.2-0.5-8.4-1.9-12.4
	c-1.3-4-3.3-7.7-5.9-11.1c-1-1.3-2.2-2.7-3.1-3.7c-0.9-1.1-1.8-2.3-2.6-3.5c-1.6-2.5-2.9-5.1-3.8-7.9c-1.9-5.6-2.3-11.7-1.2-17.5
	c0.3-1.5,0.6-2.9,1.1-4.3c0.2-0.7,0.5-1.4,0.8-2.1l0.1-0.3l0.1-0.2c0-0.1,0.1-0.2,0.2-0.3c0.1-0.2,0.3-0.4,0.4-0.6
	c1.3-1.5,3.6-1.6,5.1-0.3c0,0,0.1,0.1,0.1,0.1c0.7,0.7,1.1,1.7,1.1,2.8c0,0.3,0,0.5-0.1,0.8c0,0.1-0.1,0.2-0.1,0.4
	c0,0.1-0.1,0.2-0.2,0.4c-0.3,0.8-0.6,1.6-0.8,2.4c-1,3.3-1.3,6.7-1,10.1c0-0.3,0.1-0.6,0.2-1c0,0.4-0.1,0.7-0.2,1
	c0.6,13,10.3,23.7,23.1,25.7c0.8,0.1,1.6,0.2,2.4,0.2c0.8,0.1,1.6,0.1,2.4,0.1l2.4-0.1c0.8-0.1,1.6-0.2,2.4-0.3
	c1.6-0.3,3.1-0.7,4.6-1.2c0.7-0.3,1.5-0.6,2.2-0.9c0.4-0.2,0.7-0.3,1.1-0.5l1-0.6c2.8-1.6,5.3-3.6,7.4-6.1c2.1-2.4,3.8-5.2,5-8.2
	l0.8-2.3c0.2-0.8,0.4-1.6,0.6-2.4c0.1-0.4,0.2-0.8,0.2-1.2l0.1-1.2c0.1-0.8,0.2-1.6,0.2-2.4c0-1.6-0.1-3.2-0.3-4.8
	c-0.1-0.8-0.2-1.6-0.4-2.4c-0.2-0.8-0.4-1.6-0.7-2.4c-0.2-0.7-0.5-1.4-0.8-2.1c-0.1-0.2-0.2-0.4-0.2-0.7c0-0.2-0.1-0.3-0.1-0.5
	c0-1.1,0.5-2.1,1.4-2.6c0.2-0.1,0.3-0.2,0.5-0.2c0.1,0,0.3-0.1,0.4-0.1c0.7-0.1,1.5,0.2,2,0.6c0.3,0.2,0.6,0.5,0.8,0.8
	c0.1,0.1,0.2,0.3,0.3,0.5c0,0.1,0.1,0.1,0.1,0.3L75.4,9c3.4,8.7,3,18.4-1.1,26.9c-0.8,1.8-1.5,3.6-2.2,5.5c-0.2,1,0.1,1.1,0.9,0.6
	c1.2-0.9,2.2-2,3-3.3c4.1-5.9,6.2-13,6-20.1c-0.1-4-0.8-8-2.2-11.7c-0.4-1.2-1.1-2.3-2-3.1c-0.9-0.9-2.1-1.6-3.3-1.9
	c-1.3-0.4-2.7-0.5-4-0.1c-1.3,0.3-2.5,1-3.5,1.9c-1.2,1.1-2,2.6-2.4,4.2c-0.2,0.8-0.2,1.6-0.1,2.4c0,0.4,0.1,0.8,0.2,1.2
	c0.1,0.4,0.2,0.8,0.3,1.1c0.4,1.1,0.8,2.2,1,3.2c0.2,1,0.4,2.1,0.5,3.2c0,0.3,0.1,0.5,0.1,0.8v2.4c0,1.1-0.2,2.1-0.3,3.2l-0.4,1.6
	c-0.1,0.5-0.2,1-0.4,1.5c-0.3,1-0.7,2-1.2,3c-1.9,3.9-4.9,7.1-8.5,9.3c-7.4,4.6-16.8,4.5-24.1-0.1c-1.8-1.1-3.4-2.5-4.8-4.1
	c-1.4-1.6-2.6-3.4-3.5-5.2c-0.9-1.9-1.5-3.9-1.9-6l-0.2-1.6C21,23,21,22.5,21,22c-0.1-1.1,0-2.1,0.1-3.2c0.2-2.1,0.7-4.2,1.5-6.2
	c1.7-4.3-0.1-9.2-4.3-11.2c-0.8-0.4-1.6-0.6-2.5-0.8C12.3,0.1,8.7,1.9,7,5.1c-0.3,0.7-0.6,1.3-0.9,2C5.9,7.7,5.7,8.3,5.5,8.9
	c-3.9,11.7-2.2,24.6,4.8,34.9c1.1,1.7,2.4,3.2,3.8,4.7C15.1,49.7,16.2,51.1,17.1,52.5z M95,74.5c-0.6,0.1-1.2,0.9-1.7,2.1
	c-0.3,0.6-0.6,1.3-0.8,2c-0.3,0.7-0.6,1.6-1,2.5c-0.6,1.6-1.5,3.1-2.5,4.5c-1,1.4-2.2,2.6-3.6,3.7c-1.3,1.1-2.8,2-4.4,2.7
	c-0.8,0.4-1.6,0.7-2.4,0.9c-0.4,0.1-0.8,0.2-1.2,0.3c-0.4,0.1-0.8,0.2-1.2,0.3c-5.4,1-11.1-0.3-15.5-3.6c-2.2-1.6-4.1-3.8-5.4-6.2
	c-1.4-2.4-2.2-5.1-2.4-7.9c0-5,1.9-9.8,5.2-13.5c3.2-3.7,7.7-6,12.5-6.5c4.8-0.6,9.7,0.8,13.6,3.7c3.9,2.9,6.5,7.3,7.1,12.1
	c0.2,0.9,0.6,1.8,1.1,2.6c0.8,0.9,1.4-0.2,1.7-2.2c0.4-3.5-0.2-7.1-1.9-10.3c-1.9-3.6-4.9-6.6-8.5-8.6c-2.2-1.2-4.7-2.1-7.2-2.5
	c-1.3-0.2-2.5-0.4-3.8-0.4c-1.3,0-2.6,0.1-3.8,0.2c-7.9,1-14.7,5.9-18.3,13c-0.6,1.2-1.1,2.4-1.5,3.6c-0.4,1.3-0.7,2.6-0.9,3.9
	c-0.7,5.2,0.3,10.6,2.9,15.2c1.2,2.3,2.8,4.4,4.6,6.2c6.1,5.9,14.8,8.3,23,6.3c8.2-2,14.7-8.2,17.2-16.2c0.2-0.5,0.3-1.1,0.4-1.6
	c0.1-0.5,0.2-1.1,0.2-1.6c0.1-0.9,0-1.8-0.1-2.6C96.2,75.1,95.7,74.3,95,74.5z M72.2,81.3L72.2,81.3L72.2,81.3l0.3-0.3l0.4-0.4
	c1-1,1.9-2.2,2.7-3.4l0.8-0.7c1.8-1.4,3.5-3,4.9-4.7c0.4-0.5,0.4-1.4-0.4-2.5s-1.7-1.5-2.4-1.2c-1.2,0.5-2.4,1.2-3.4,2.1
	c-1.5,1.5-2.9,3.2-4.1,5l-0.5,0.2c-1.1-1.2-2.4-2.3-3.7-3.2c-0.2-0.1-0.7,0.2-1,0.4c-0.4,0.5-0.7,1.1-0.6,1.8c0,1.4,0.3,2.8,1.1,4
	c0.4,0.5,0.7,1.1,1,1.7c0.1,0.3,0.2,0.6,0.4,0.9l0,0l0,0L72.2,81.3L72.2,81.3L72.2,81.3z"/>
</svg>
